<?xml version="1.0" standalone="no"?><!DOCTYPE svg PUBLIC "-//W3C//DTD SVG 1.1//EN" "http://www.w3.org/Graphics/SVG/1.1/DTD/svg11.dtd"><svg t="1553744901374" class="icon" style="" viewBox="0 0 1152 1024" version="1.1" xmlns="http://www.w3.org/2000/svg" p-id="4268" xmlns:xlink="http://www.w3.org/1999/xlink" width="18" height="16"><defs><style type="text/css"></style></defs><path d="M401.116018 277.440315A277.440315 277.440315 0 1 0 678.556333 0a277.440315 277.440315 0 0 0-277.440315 277.440315z" fill="#E7C690" p-id="4269"></path><path d="M237.560129 1014.785584H62.102286A62.005343 62.005343 0 0 1 0.00096 952.396307v-595.097718a62.053335 62.053335 0 0 1 62.101326-62.101326H237.560129a62.053335 62.053335 0 0 1 62.101327 62.101326v595.097718a62.101326 62.101326 0 0 1-62.101327 62.389277z m-113.308525-124.202653h51.207199V419.687866H124.251604z m826.945869 133.465061H401.116018a62.053335 62.053335 0 0 1-62.101326-62.101327V357.298589a62.005343 62.005343 0 0 1 13.533674-38.63336l127.4181-189.519426a173.586165 173.586165 0 0 1 240.726625-47.223883 173.490181 173.490181 0 0 1 47.991751 239.958757l-1.39176 2.20762 249.029198-15.309368a127.514084 127.514084 0 0 1 134.376904 147.286685l-72.899471 460.048929a127.850026 127.850026 0 0 1-126.170314 107.645498zM463.217345 899.60538h488.076112a3.407414 3.407414 0 0 0 3.31143-2.783521l72.899471-460.048929a2.831513 2.831513 0 0 0-0.81586-2.783522 3.02348 3.02348 0 0 0-2.639546-1.10381h-0.287951l-370.352346 22.796082a62.149318 62.149318 0 0 1-56.294324-95.263627l66.660543-105.581853c0.287951-0.575901 0.671885-0.959835 0.959835-1.535736a49.287529 49.287529 0 0 0 7.438721-37.00164 48.759619 48.759619 0 0 0-20.82842-31.338614 49.287529 49.287529 0 0 0-68.340254 13.389699L465.28099 373.663777a7.774664 7.774664 0 0 1-0.527909 1.679711l-1.391761 4.12729v520.134602z" fill="#242F44" p-id="4270"></path></svg>