<?xml version="1.0" standalone="no"?><!DOCTYPE svg PUBLIC "-//W3C//DTD SVG 1.1//EN" "http://www.w3.org/Graphics/SVG/1.1/DTD/svg11.dtd"><svg t="1553744572081" class="icon" style="" viewBox="0 0 1024 1024" version="1.1" xmlns="http://www.w3.org/2000/svg" p-id="4157" xmlns:xlink="http://www.w3.org/1999/xlink" width="16" height="16"><defs><style type="text/css"></style></defs><path d="M322.873603 437.9068a332.619831 332.619831 0 1 0 332.619831-332.61983 332.619831 332.619831 0 0 0-332.619831 332.61983z" fill="#E7C690" p-id="4158"></path><path d="M482.062042 831.592221a415.732145 415.732145 0 1 1 293.686253-121.704743 412.747095 412.747095 0 0 1-293.686253 121.704743z m0-709.844834a294.24062 294.24062 0 1 0 208.143256 86.182651 292.534877 292.534877 0 0 0-208.143256-86.225295zM918.817466 1024h-823.020863a60.511223 60.511223 0 0 1 0-121.022446h823.020863a60.511223 60.511223 0 0 1 0 121.022446z" fill="#242F44" p-id="4159"></path></svg>