<?xml version="1.0" standalone="no"?><!DOCTYPE svg PUBLIC "-//W3C//DTD SVG 1.1//EN" "http://www.w3.org/Graphics/SVG/1.1/DTD/svg11.dtd"><svg t="1553744913170" class="icon" style="" viewBox="0 0 1024 1024" version="1.1" xmlns="http://www.w3.org/2000/svg" p-id="4379" xmlns:xlink="http://www.w3.org/1999/xlink" width="16" height="16"><defs><style type="text/css"></style></defs><path d="M284.37303 250.368322h350.378521v308.394539H284.37303z" fill="#E7C690" p-id="4380"></path><path d="M892.71411 1024H131.285094A61.653308 61.653308 0 0 1 69.546453 962.261359V61.739068A61.653308 61.653308 0 0 1 131.285094 0.000427h557.695768a61.226641 61.226641 0 0 1 41.301316 15.91466l115.199952 103.978623 1.663999 1.493333 88.49063 85.589297a61.439974 61.439974 0 0 1 18.815992 44.330649v710.82637A61.866641 61.866641 0 0 1 892.71411 1024z m-699.733041-123.477282h637.951734V277.333644l-68.863972-66.687972-96.853293-87.381297H193.023735z" fill="#242F44" p-id="4381"></path><path d="M715.988851 479.488227H307.967687a61.738641 61.738641 0 1 1 0-123.477282h408.021164a61.738641 61.738641 0 0 1 0 123.477282z" fill="#242F44" p-id="4382"></path><path d="M715.988851 479.488227H307.967687a61.738641 61.738641 0 1 1 0-123.477282h408.021164a61.738641 61.738641 0 0 1 0 123.477282z m0 288.63988H307.967687a61.738641 61.738641 0 1 1 0-123.477282h408.021164a61.738641 61.738641 0 1 1 0 123.477282z" fill="#242F44" p-id="4383"></path></svg>